<?xml version="1.0" encoding="utf-8"?>
<svg xmlns="http://www.w3.org/2000/svg" height="48" width="48" viewBox="0 0 48 48">
  <g>
    <path id="path1" transform="rotate(0,24,24) translate(11.0000015497208,11) scale(0.8125,0.8125)  " fill="#FFFFFF" d="M14.991151,5.3039813L17.007218,5.3039813 17.007218,7.1449842C18.245259,7.3219848 19.347294,7.7499857 20.194323,8.6899872 20.788342,9.3489885 21.163353,10.12299 21.423363,11.008991 20.500332,11.387992 19.580302,11.765992 18.672272,12.139993 18.452265,11.716992 18.276259,11.304992 18.037251,10.933991 17.479233,10.06699 16.691206,9.6569891 15.644173,9.8399887 14.919149,9.9659891 14.35813,10.54399 14.223126,11.300992 14.090122,12.052993 14.35313,12.669994 15.082154,13.011994 16.048186,13.464995 17.053219,13.834996 18.036251,14.253997 18.527268,14.463997 19.019284,14.678998 19.488299,14.932998 21.277358,15.903999 22.063384,17.452002 21.92438,19.445005 21.736372,22.161011 20.061318,23.888014 17.359229,24.244015 17.251225,24.259014 17.144223,24.286015 17.020218,24.310015L17.020218,26.691019 15.006152,26.691019 15.006152,24.324015C12.148057,24.004013 10.603007,22.22401 10.07699,19.670006 10.586007,19.538006 11.098023,19.406006 11.61004,19.272005 12.125057,19.137005 12.639074,19.001005 13.174092,18.860004 13.249093,19.131004 13.307096,19.379005 13.387099,19.619005 13.929117,21.235008 15.727175,22.00901 17.279227,21.28101 17.975249,20.955008 18.283259,20.359007 18.311261,19.611006 18.337262,18.909004 18.052252,18.365004 17.400231,18.074003 16.659207,17.743002 15.900181,17.452002 15.150156,17.140001 14.492135,16.866001 13.817112,16.627001 13.184092,16.304001 11.344031,15.362999 10.428001,13.604996 10.660009,11.548992 10.740012,10.831991 10.950018,10.15899 11.28903,9.5189886 11.992053,8.1919861 13.13909,7.5129852 14.566137,7.2289844 14.697141,7.2029843 14.829146,7.1779847 14.991151,7.1469846z M15.990995,2C8.2840018,2 2.0089831,8.2709961 2.0000107,15.985962 1.9910082,23.700989 8.2619986,29.987 15.977994,30L16.00198,30C19.725977,30 23.232962,28.545959 25.879963,25.903015 28.531968,23.255005 29.99498,19.735962 29.999983,15.997009 30.004958,12.274963 28.547959,8.7669678 25.897969,6.1159668 23.247977,3.4660034 19.733973,2.0039673 16.004971,2z M15.990995,0L16.006985,0C20.269982,0.0039672852 24.284962,1.6740112 27.312975,4.7019653 30.340956,7.730957 32.005965,11.742981 31.999981,15.998962 31.993971,20.271973 30.322981,24.292969 27.292986,27.317993 24.268971,30.338013 20.259972,32 16.00198,32L15.973997,32C7.1559815,31.984985 -0.011004009,24.800964 1.2683692E-05,15.984009 0.010999145,7.1679688 7.1819825,0 15.990995,0z" />
  </g>
</svg>

